<svg width="16" height="16" viewBox="0 0 16 16" fill="none" xmlns="http://www.w3.org/2000/svg">
<path d="M8.53228 14.9795C8.51357 14.9808 8.49491 14.9825 8.47618 14.9837C4.50051 15.2506 1.14538 12.2025 1.01793 8.24899L1.01787 8.24788C1.01777 8.24463 1.01732 8.24142 1.01721 8.23816C0.741222 4.67565 3.81485 1 8.00403 1C11.8472 1 15.0001 4.12972 15.0001 7.99916C15.0001 11.6946 12.1355 14.7084 8.53228 14.9795ZM13.656 11.0291C13.9235 10.5312 14.1332 9.97514 14.2616 9.39981C14.2992 9.22974 14.331 9.05815 14.3547 8.88494C14.3552 8.88138 14.3556 8.87778 14.3561 8.87422L13.2879 9.71801L13.656 11.0291ZM9.90939 14.1289C11.2683 13.7048 12.4331 12.8385 13.2388 11.7004L12.7141 9.83091L10.9547 9.17085L9.62508 10.0589L8.29547 10.947V13.052L9.90939 14.1289ZM10.6483 8.67414L9.6485 5.84662H6.35972L5.35989 8.67414L8.00403 10.4403L10.6483 8.67414ZM9.09598 14.3231C9.11012 14.3206 9.12423 14.318 9.13836 14.3155L8.00418 13.5588L6.87313 14.3147C7.57997 14.4389 8.33229 14.455 9.09598 14.3231ZM6.09706 14.1319L7.7126 13.0522V10.9469L5.05353 9.17085L3.29713 9.83071L2.76703 11.7194C3.57014 12.8564 4.73511 13.7129 6.09706 14.1319ZM2.35345 11.0358L2.72329 9.71801L1.65417 8.8734C1.75903 9.65418 2.00707 10.3911 2.35345 11.0358ZM2.86152 4.16129C1.97401 5.32429 1.5202 6.71411 1.59283 8.08168L3.10803 9.2787L4.74534 8.66357L5.84803 5.5449L4.80076 4.08495L2.86152 4.16129ZM5.18093 2.23966C4.56979 2.53898 3.9394 2.98412 3.38436 3.55698L4.74016 3.5035L5.21209 2.22488C5.20174 2.22992 5.19125 2.23457 5.18093 2.23966ZM10.0643 1.92498C9.41713 1.70471 8.72468 1.58339 8.00403 1.58339C7.29154 1.58339 6.59925 1.70054 5.94487 1.92311L5.27311 3.7431L6.36354 5.26322H9.64766L10.738 3.74324L10.0643 1.92498ZM10.797 2.22476L11.2708 3.5035L12.6246 3.55682C12.0944 3.00516 11.4799 2.55681 10.797 2.22476ZM13.1399 4.16092L11.2104 4.08495L10.1612 5.54769L11.2628 8.6633L12.9032 9.2787L14.4151 8.08428C14.4155 8.05582 14.4172 8.02772 14.4172 7.99916C14.4172 6.56106 13.9418 5.23199 13.1399 4.16092Z" fill="#022D5A"/>
<path d="M8.54354 15.129L8.54338 15.129C8.53782 15.1295 8.53128 15.13 8.5243 15.1305C8.51197 15.1315 8.49828 15.1326 8.48623 15.1334C8.4862 15.1334 8.48617 15.1334 8.48614 15.1334L8.47618 14.9837C4.50051 15.2506 1.14538 12.2025 1.01793 8.24899L8.54354 15.129ZM8.54354 15.129C12.2241 14.8522 15.1501 11.774 15.1501 7.99916C15.1501 4.0466 11.9297 0.85 8.00403 0.85C3.72769 0.85 0.586208 4.59919 0.867495 8.24758L8.54354 15.129ZM0.868161 8.25668C0.868164 8.25672 0.868147 8.25655 0.868125 8.25623L0.868161 8.25668ZM8.73118 14.2241C8.23762 14.2812 7.75095 14.2769 7.28094 14.2226L8.00425 13.7392L8.73118 14.2241ZM3.76927 3.39168C4.1422 3.04959 4.54028 2.76351 4.93644 2.53852L4.63413 3.35756L3.76927 3.39168ZM14.1435 9.23333C14.1345 9.278 14.125 9.3226 14.1152 9.36714C14.0187 9.79949 13.8751 10.2208 13.6951 10.6135L13.4594 9.77374L14.1435 9.23333ZM12.5902 9.94464L13.0749 11.6716C12.3032 12.7362 11.2072 13.5502 9.93263 13.9641L8.44547 12.9718V11.0272L9.70839 10.1837L10.974 9.33831L12.5902 9.94464ZM6.46578 5.99662H9.54243L10.468 8.61419L8.00404 10.2599L5.54019 8.61419L6.46578 5.99662ZM7.5626 12.972L6.07344 13.9672C4.79571 13.5582 3.6999 12.7534 2.93089 11.6907L3.42102 9.9444L5.03423 9.33834L7.5626 11.0271V12.972ZM1.86563 9.23162L2.55186 9.77374L2.31428 10.6202C2.11615 10.188 1.96247 9.72069 1.86563 9.23162ZM1.73948 8.00638C1.68793 6.72078 2.11308 5.41454 2.93844 4.30838L4.72596 4.23801L5.68051 5.56871L4.6272 8.54771L3.13456 9.1085L1.73948 8.00638ZM8.00403 1.73339C8.68279 1.73339 9.33591 1.84359 9.94856 2.04447L10.5696 3.7206L9.57066 5.11322H6.44054L5.44139 3.72035L6.06066 2.04259C6.67964 1.8399 7.33255 1.73339 8.00403 1.73339ZM11.3766 3.35755L11.0735 2.53923C11.494 2.77686 11.8849 3.06214 12.2419 3.39163L11.3766 3.35755ZM10.3287 5.5715L11.2852 4.23801L13.0621 4.30797C13.8197 5.34402 14.2672 6.62014 14.2672 7.99916C14.2672 8.00272 14.2672 8.00631 14.2671 8.01L12.8766 9.10853L11.3809 8.54741L10.3287 5.5715Z" stroke="#022D5A" stroke-width="0.3"/>
</svg>
